<?xml version="1.0" encoding="UTF-8"?>
<!DOCTYPE svg PUBLIC "-//W3C//DTD SVG 1.1//EN" "http://www.w3.org/Graphics/SVG/1.1/DTD/svg11.dtd">
<svg xmlns="http://www.w3.org/2000/svg" version="1.1" width="379px" height="480px" style="shape-rendering:geometricPrecision; text-rendering:geometricPrecision; image-rendering:optimizeQuality; fill-rule:evenodd; clip-rule:evenodd" xmlns:xlink="http://www.w3.org/1999/xlink">
<g><path style="opacity:0.904" fill="#050400" d="M 8.5,8.5 C 128.832,9.2753 249.165,9.60864 369.5,9.5C 369.667,105.167 369.5,200.834 369,296.5C 364.866,334.742 350.866,368.742 327,398.5C 313.605,411.787 298.105,421.954 280.5,429C 260.5,435.667 240.5,442.333 220.5,449C 209.062,454.464 198.562,461.298 189,469.5C 177.037,458.886 163.537,450.719 148.5,445C 133.349,440.796 118.349,436.129 103.5,431C 62.5082,416.008 35.0082,387.842 21,346.5C 14.7986,330.361 10.7986,313.694 9,296.5C 8.5,200.501 8.33334,104.501 8.5,8.5 Z"/></g>
<g><path style="opacity:1" fill="#fdee00" d="M 12.5,13.5 C 130.167,13.5 247.833,13.5 365.5,13.5C 365.667,106.834 365.5,200.167 365,293.5C 361.322,326.872 350.322,357.538 332,385.5C 317.679,403.412 299.846,416.578 278.5,425C 258.472,431.671 238.472,438.338 218.5,445C 207.868,449.98 198.035,456.147 189,463.5C 179.422,455.622 168.922,449.122 157.5,444C 137.296,437.949 117.296,431.282 97.5,424C 61.1354,408.635 36.9688,382.135 25,344.5C 18.9457,328.335 14.9457,311.668 13,294.5C 12.5,200.834 12.3333,107.167 12.5,13.5 Z"/></g>
<g><path style="opacity:1" fill="#171503" d="M 187.5,32.5 C 191.397,34.1212 195.064,36.2879 198.5,39C 245,74.8333 291.5,110.667 338,146.5C 338.667,147.833 338.667,149.167 338,150.5C 318.871,211.024 300.371,271.691 282.5,332.5C 220.167,332.5 157.833,332.5 95.5,332.5C 77.6285,271.691 59.1285,211.024 40,150.5C 39.3333,149.167 39.3333,147.833 40,146.5C 89.3522,108.636 138.519,70.6364 187.5,32.5 Z"/></g>
<g><path style="opacity:1" fill="#f5ea03" d="M 187.5,35.5 C 189.783,35.6079 191.783,36.4412 193.5,38C 241.205,74.8446 288.872,111.678 336.5,148.5C 317.222,208.998 298.556,269.665 280.5,330.5C 219.5,330.5 158.5,330.5 97.5,330.5C 79.4443,269.665 60.7776,208.998 41.5,148.5C 90.1854,110.809 138.852,73.1427 187.5,35.5 Z"/></g>
<g><path style="opacity:1" fill="#059a4b" d="M 187.5,43.5 C 190.14,43.954 192.473,45.1207 194.5,47C 238.397,81.1969 282.563,115.03 327,148.5C 327.667,150.167 327.667,151.833 327,153.5C 309.523,209.428 292.357,265.428 275.5,321.5C 217.833,321.5 160.167,321.5 102.5,321.5C 85.6432,265.428 68.4765,209.428 51,153.5C 50.3333,151.833 50.3333,150.167 51,148.5C 96.6853,113.636 142.185,78.6364 187.5,43.5 Z"/></g>
<g><path style="opacity:1" fill="#e4ebe8" d="M 265.5,270.5 C 265.5,269.833 265.5,269.167 265.5,268.5C 292.74,235.117 298.907,198.117 284,157.5C 261.075,111.613 223.908,91.1129 172.5,96C 130.12,105.046 102.286,130.212 89,171.5C 81.1754,207.231 88.6754,239.231 111.5,267.5C 111.5,268.167 111.5,268.833 111.5,269.5C 97.4106,254.655 88.5773,236.988 85,216.5C 79.2306,160.85 101.731,121.684 152.5,99C 198.943,84.9832 238.443,95.8166 271,131.5C 298.633,168.995 301.966,208.662 281,250.5C 276.539,257.778 271.372,264.445 265.5,270.5 Z"/></g>
<g><path style="opacity:1" fill="#050504" d="M 265.5,268.5 C 262.833,270.833 260.167,273.167 257.5,275.5C 254.169,272 251.002,268.334 248,264.5C 226.307,283.487 201.14,290.654 172.5,286C 156.314,282.658 142.148,275.491 130,264.5C 126.998,268.334 123.831,272 120.5,275.5C 117.5,272.833 114.5,270.167 111.5,267.5C 88.6754,239.231 81.1754,207.231 89,171.5C 102.286,130.212 130.12,105.046 172.5,96C 223.908,91.1129 261.075,111.613 284,157.5C 298.907,198.117 292.74,235.117 265.5,268.5 Z"/></g>
<g><path style="opacity:1" fill="#e4e4e4" d="M 113.5,135.5 C 118.347,134.84 122.181,136.507 125,140.5C 125.647,147.517 122.481,151.017 115.5,151C 108.324,146.607 107.657,141.44 113.5,135.5 Z"/></g>
<g><path style="opacity:1" fill="#0f0f0f" d="M 113.5,138.5 C 119.19,137.726 122.024,140.059 122,145.5C 119.791,147.706 117.291,148.04 114.5,146.5C 112.341,144.046 112.008,141.379 113.5,138.5 Z"/></g>
<g><path style="opacity:1" fill="#e5e5e5" d="M 260.5,132.5 C 264.414,134.109 264.247,135.775 260,137.5C 261.113,142.965 263.613,143.632 267.5,139.5C 268.5,139.833 269.167,140.5 269.5,141.5C 265.817,145.18 261.817,148.514 257.5,151.5C 256.713,150.758 256.047,149.925 255.5,149C 261.491,146.583 261.825,143.749 256.5,140.5C 254.851,141.648 253.351,142.981 252,144.5C 251.13,143.892 250.63,143.059 250.5,142C 253.708,138.624 257.041,135.457 260.5,132.5 Z"/></g>
<g><path style="opacity:1" fill="#e3e3e3" d="M 245.5,120.5 C 251.984,120.815 255.151,124.148 255,130.5C 252.89,135.945 249.056,137.778 243.5,136C 239.788,133.487 238.622,129.987 240,125.5C 241.73,123.598 243.563,121.931 245.5,120.5 Z"/></g>
<g><path style="opacity:1" fill="#101010" d="M 246.5,123.5 C 251.337,124.238 252.671,126.904 250.5,131.5C 243.123,135.291 240.957,133.291 244,125.5C 244.995,124.934 245.828,124.267 246.5,123.5 Z"/></g>
<g><path style="opacity:1" fill="#e9e9e9" d="M 126.5,121.5 C 128.604,121.201 130.604,121.534 132.5,122.5C 130.434,123.906 128.268,125.24 126,126.5C 124.959,129.636 125.793,132.136 128.5,134C 131.891,134.971 134.224,133.804 135.5,130.5C 134.224,129.355 132.891,129.355 131.5,130.5C 131.167,130 130.833,129.5 130.5,129C 131.978,127.522 133.478,126.022 135,124.5C 139.461,127.972 139.628,131.639 135.5,135.5C 126.26,138.772 122.093,135.439 123,125.5C 124.376,124.295 125.542,122.962 126.5,121.5 Z"/></g>
<g><path style="opacity:1" fill="#e6e6e6" d="M 139.5,112.5 C 141.199,112.34 142.866,112.506 144.5,113C 148.167,116 151.833,119 155.5,122C 153.407,123.927 151.407,123.76 149.5,121.5C 148.5,122 147.5,122.5 146.5,123C 145.24,125.268 143.906,127.434 142.5,129.5C 141.175,123.886 140.175,118.219 139.5,112.5 Z"/></g>
<g><path style="opacity:1" fill="#111111" d="M 143.5,117.5 C 147.123,118.411 147.29,119.745 144,121.5C 143.51,120.207 143.343,118.873 143.5,117.5 Z"/></g>
<g><path style="opacity:1" fill="#e1e1e1" d="M 231.5,109.5 C 235.469,111.151 239.135,113.318 242.5,116C 241.975,116.692 241.308,117.192 240.5,117.5C 239.232,116.572 237.899,116.405 236.5,117C 234.875,120.42 232.875,123.587 230.5,126.5C 229.5,126.167 228.833,125.5 228.5,124.5C 230.556,121.555 232.223,118.388 233.5,115C 233.012,113.416 232.012,112.249 230.5,111.5C 230.863,110.817 231.196,110.15 231.5,109.5 Z"/></g>
<g><path style="opacity:1" fill="#0b0a06" d="M 267.5,238.5 C 268.471,240.483 269.471,242.483 270.5,244.5C 216.167,245.833 161.833,245.833 107.5,244.5C 108.529,242.483 109.529,240.483 110.5,238.5C 136.64,193.563 162.807,148.563 189,103.5C 215.193,148.563 241.36,193.563 267.5,238.5 Z"/></g>
<g><path style="opacity:1" fill="#e1e1e1" d="M 269.5,237.5 C 268.833,237.833 268.167,238.167 267.5,238.5C 241.36,193.563 215.193,148.563 189,103.5C 162.807,148.563 136.64,193.563 110.5,238.5C 109.833,238.167 109.167,237.833 108.5,237.5C 135.322,191.194 162.155,144.861 189,98.5C 215.845,144.861 242.678,191.194 269.5,237.5 Z"/></g>
<g><path style="opacity:1" fill="#faec08" d="M 239.5,200.5 C 237.205,202.385 234.538,202.885 231.5,202C 228.872,200.374 226.539,198.374 224.5,196C 222.323,194.798 219.989,194.298 217.5,194.5C 218.178,181.538 214.678,169.872 207,159.5C 193.269,146.699 180.769,147.699 169.5,162.5C 168.833,162.5 168.5,162.833 168.5,163.5C 162.561,172.922 159.894,183.255 160.5,194.5C 158.011,194.298 155.677,194.798 153.5,196C 150.174,200.501 145.841,202.501 140.5,202C 139.584,201.722 138.918,201.222 138.5,200.5C 155.069,171.031 171.902,141.698 189,112.5C 206.098,141.698 222.931,171.031 239.5,200.5 Z"/></g>
<g><path style="opacity:1" fill="#8ccd69" d="M 178.5,134.5 C 185.5,135.833 192.5,135.833 199.5,134.5C 200.043,134.56 200.376,134.893 200.5,135.5C 192.833,136.833 185.167,136.833 177.5,135.5C 177.624,134.893 177.957,134.56 178.5,134.5 Z"/></g>
<g><path style="opacity:1" fill="#14a3e4" d="M 199.5,134.5 C 192.5,135.833 185.5,135.833 178.5,134.5C 180.988,130.194 183.488,125.861 186,121.5C 188.167,123.83 189.834,126.497 191,129.5C 192,128.167 193,126.833 194,125.5C 195.844,128.528 197.678,131.528 199.5,134.5 Z"/></g>
<g><path style="opacity:1" fill="#e8e8e8" d="M 103.5,148.5 C 105.86,150.713 107.694,153.379 109,156.5C 111.25,157.708 113.417,159.041 115.5,160.5C 115.291,161.086 114.957,161.586 114.5,162C 109.308,161.058 103.975,160.225 98.5,159.5C 98.7093,158.914 99.0426,158.414 99.5,158C 101.833,157.667 104.167,157.333 106.5,157C 103.553,154.65 102.553,151.817 103.5,148.5 Z"/></g>
<g><path style="opacity:1" fill="#fbfbf9" d="M 217.5,194.5 C 217.5,195.167 217.5,195.833 217.5,196.5C 217.5,197.833 217.5,199.167 217.5,200.5C 217.167,201.167 216.833,201.833 216.5,202.5C 216.5,203.5 216.5,204.5 216.5,205.5C 215.596,206.209 215.263,207.209 215.5,208.5C 214.766,209.708 214.433,211.041 214.5,212.5C 213.596,213.209 213.263,214.209 213.5,215.5C 211.5,218.5 209.5,221.5 207.5,224.5C 206.599,225.29 205.932,226.29 205.5,227.5C 203.596,227.738 202.262,228.738 201.5,230.5C 200.833,230.5 200.5,230.833 200.5,231.5C 193.132,235.414 185.798,235.414 178.5,231.5C 178.158,230.662 177.492,230.328 176.5,230.5C 175.738,228.738 174.404,227.738 172.5,227.5C 171.833,226.5 171.167,225.5 170.5,224.5C 168.833,221.833 167.167,219.167 165.5,216.5C 165.443,215.391 165.11,214.391 164.5,213.5C 163.833,211.833 163.167,210.167 162.5,208.5C 162.167,207.833 161.833,207.167 161.5,206.5C 161.5,205.167 161.5,203.833 161.5,202.5C 161.167,201.833 160.833,201.167 160.5,200.5C 160.5,199.167 160.5,197.833 160.5,196.5C 159.167,196.5 157.833,196.5 156.5,196.5C 157.833,195.833 159.167,195.167 160.5,194.5C 159.894,183.255 162.561,172.922 168.5,163.5C 169.043,163.56 169.376,163.893 169.5,164.5C 160.415,180.657 160.249,196.657 169,212.5C 167.984,205.06 167.484,197.56 167.5,190C 169.819,185.699 170.486,181.533 169.5,177.5C 170.609,175.615 171.443,173.615 172,171.5C 174.825,167.68 178.325,164.513 182.5,162C 181.542,160.853 181.875,159.853 183.5,159C 181.257,159.319 179.09,159.152 177,158.5C 175.748,160.001 174.748,161.668 174,163.5C 173.667,162.5 173.333,161.5 173,160.5C 172.184,161.823 171.017,162.489 169.5,162.5C 180.769,147.699 193.269,146.699 207,159.5C 214.678,169.872 218.178,181.538 217.5,194.5 Z"/></g>
<g><path style="opacity:1" fill="#e6e6e6" d="M 268.5,151.5 C 270.857,151.337 273.19,151.503 275.5,152C 276.022,152.561 276.355,153.228 276.5,154C 273.75,158.588 270.417,162.755 266.5,166.5C 265.5,166.167 264.833,165.5 264.5,164.5C 266.994,161.92 266.994,159.253 264.5,156.5C 262.955,155.548 261.288,155.215 259.5,155.5C 259.5,154.5 259.5,153.5 259.5,152.5C 262.713,152.81 265.713,152.477 268.5,151.5 Z"/></g>
<g><path style="opacity:1" fill="#242424" d="M 267.5,154.5 C 273.599,153.813 274.099,155.146 269,158.5C 267.812,157.437 267.312,156.103 267.5,154.5 Z"/></g>
<g><path style="opacity:1" fill="#101010" d="M 189.5,163.5 C 192.842,172.35 196.842,180.85 201.5,189C 200.365,194.334 198.365,199.334 195.5,204C 193.919,204.707 192.419,205.54 191,206.5C 190.667,210.5 190.333,214.5 190,218.5C 187.399,222.438 184.899,222.438 182.5,218.5C 184.154,216.857 185.487,215.024 186.5,213C 186.023,210.112 185.356,207.279 184.5,204.5C 184.709,203.914 185.043,203.414 185.5,203C 187.5,202.667 189.5,202.333 191.5,202C 192.894,201.044 193.561,199.711 193.5,198C 190.583,192.161 187.916,186.161 185.5,180C 185.667,179.5 185.833,179 186,178.5C 186.893,179.711 187.726,179.711 188.5,178.5C 187.047,173.367 187.38,168.367 189.5,163.5 Z"/></g>
<g><path style="opacity:1" fill="#e0e0e0" d="M 274.5,165.5 C 281.415,165.916 284.582,169.583 284,176.5C 283.311,177.357 282.478,178.023 281.5,178.5C 280.554,176.925 280.554,175.258 281.5,173.5C 280.148,169.746 277.482,168.579 273.5,170C 269.562,172.601 269.562,175.101 273.5,177.5C 274.167,176.167 274.833,174.833 275.5,173.5C 277.456,175.351 278.456,177.684 278.5,180.5C 274.201,182.789 271.034,181.789 269,177.5C 267.039,171.577 268.872,167.577 274.5,165.5 Z"/></g>
<g><path style="opacity:1" fill="#bababa" d="M 194.5,179.5 C 196.337,179.639 196.67,180.306 195.5,181.5C 194.702,181.043 194.369,180.376 194.5,179.5 Z"/></g>
<g><path style="opacity:1" fill="#e2e2e2" d="M 100.5,167.5 C 104.167,167.5 107.833,167.5 111.5,167.5C 111.5,168.5 111.5,169.5 111.5,170.5C 107.478,170.018 105.478,171.852 105.5,176C 106.509,177.168 107.509,178.335 108.5,179.5C 107.787,181.776 107.287,184.109 107,186.5C 104.542,187.64 102.375,189.14 100.5,191C 101.944,193.034 103.944,193.868 106.5,193.5C 106.5,194.5 106.5,195.5 106.5,196.5C 101.138,196.528 95.8049,196.194 90.5,195.5C 90.1499,191.454 90.8166,187.62 92.5,184C 95.8926,182.832 98.5592,183.666 100.5,186.5C 102.5,185.167 104.5,183.833 106.5,182.5C 102.988,178.823 99.1543,175.489 95,172.5C 94.3162,171.216 94.4829,170.049 95.5,169C 97.3817,168.802 99.0484,168.302 100.5,167.5 Z"/></g>
<g><path style="opacity:1" fill="#0c0c0c" d="M 99.5,172.5 C 100.568,171.566 101.901,171.232 103.5,171.5C 103.719,172.675 103.386,173.675 102.5,174.5C 101.482,173.807 100.482,173.141 99.5,172.5 Z"/></g>
<g><path style="opacity:1" fill="#dedede" d="M 271.5,184.5 C 276.785,186.04 282.118,187.373 287.5,188.5C 287.762,189.978 287.429,191.311 286.5,192.5C 281.833,194.833 277.167,197.167 272.5,199.5C 271.571,198.311 271.238,196.978 271.5,195.5C 272.5,195.5 273.5,195.5 274.5,195.5C 274.61,191.39 273.61,187.723 271.5,184.5 Z"/></g>
<g><path style="opacity:1" fill="#b0e0c7" d="M 168.5,163.5 C 168.5,162.833 168.833,162.5 169.5,162.5C 171.017,162.489 172.184,161.823 173,160.5C 173.333,161.5 173.667,162.5 174,163.5C 174.748,161.668 175.748,160.001 177,158.5C 179.09,159.152 181.257,159.319 183.5,159C 181.875,159.853 181.542,160.853 182.5,162C 178.325,164.513 174.825,167.68 172,171.5C 171.443,173.615 170.609,175.615 169.5,177.5C 170.486,181.533 169.819,185.699 167.5,190C 167.484,197.56 167.984,205.06 169,212.5C 160.249,196.657 160.415,180.657 169.5,164.5C 169.376,163.893 169.043,163.56 168.5,163.5 Z"/></g>
<g><path style="opacity:1" fill="#101010" d="M 94.5,186.5 C 95.5,186.5 96.5,186.5 97.5,186.5C 97.5,188.5 97.5,190.5 97.5,192.5C 96.1667,192.5 94.8333,192.5 93.5,192.5C 93.3253,190.379 93.6586,188.379 94.5,186.5 Z"/></g>
<g><path style="opacity:1" fill="#151515" d="M 277.5,189.5 C 284.167,190.5 284.167,191.5 277.5,192.5C 277.5,191.5 277.5,190.5 277.5,189.5 Z"/></g>
<g><path style="opacity:1" fill="#f4ec15" d="M 156.5,196.5 C 157.833,196.5 159.167,196.5 160.5,196.5C 160.5,197.833 160.5,199.167 160.5,200.5C 158.011,200.298 155.677,200.798 153.5,202C 150.202,207.318 145.536,209.318 139.5,208C 138.29,206.961 137.29,205.794 136.5,204.5C 136.328,203.508 136.662,202.842 137.5,202.5C 139.896,204.212 142.562,204.712 145.5,204C 149.34,201.644 153.006,199.144 156.5,196.5 Z"/></g>
<g><path style="opacity:1" fill="#fbe807" d="M 217.5,196.5 C 219.527,196.338 221.527,196.505 223.5,197C 227.859,203.54 233.526,205.373 240.5,202.5C 241.338,202.842 241.672,203.508 241.5,204.5C 239.206,208.252 235.872,209.419 231.5,208C 228.5,205.667 225.5,203.333 222.5,201C 220.866,200.506 219.199,200.34 217.5,200.5C 217.5,199.167 217.5,197.833 217.5,196.5 Z"/></g>
<g><path style="opacity:1" fill="#cb784d" d="M 217.5,194.5 C 219.989,194.298 222.323,194.798 224.5,196C 226.539,198.374 228.872,200.374 231.5,202C 234.538,202.885 237.205,202.385 239.5,200.5C 240.338,200.842 240.672,201.508 240.5,202.5C 233.526,205.373 227.859,203.54 223.5,197C 221.527,196.505 219.527,196.338 217.5,196.5C 217.5,195.833 217.5,195.167 217.5,194.5 Z"/></g>
<g><path style="opacity:1" fill="#dcdcdc" d="M 94.5,200.5 C 98.4437,201.11 100.777,203.443 101.5,207.5C 103.396,208.466 105.396,208.799 107.5,208.5C 107.67,209.822 107.337,210.989 106.5,212C 101.492,212.501 96.4918,213.001 91.5,213.5C 91.3347,209.818 91.5014,206.152 92,202.5C 92.9947,201.934 93.828,201.267 94.5,200.5 Z"/></g>
<g><path style="opacity:1" fill="#3eabc3" d="M 160.5,194.5 C 159.167,195.167 157.833,195.833 156.5,196.5C 153.006,199.144 149.34,201.644 145.5,204C 142.562,204.712 139.896,204.212 137.5,202.5C 137.328,201.508 137.662,200.842 138.5,200.5C 138.918,201.222 139.584,201.722 140.5,202C 145.841,202.501 150.174,200.501 153.5,196C 155.677,194.798 158.011,194.298 160.5,194.5 Z"/></g>
<g><path style="opacity:1" fill="#ebe922" d="M 161.5,202.5 C 161.5,203.833 161.5,205.167 161.5,206.5C 155.711,206.095 151.044,208.261 147.5,213C 146.127,213.875 144.627,214.375 143,214.5C 139.277,213.388 136.111,211.388 133.5,208.5C 133.833,207.833 134.167,207.167 134.5,206.5C 137.11,208.637 140.11,209.97 143.5,210.5C 145.299,210.423 146.966,209.923 148.5,209C 151.529,204.152 155.862,201.986 161.5,202.5 Z"/></g>
<g><path style="opacity:1" fill="#fae50c" d="M 216.5,202.5 C 222.138,201.986 226.471,204.152 229.5,209C 231.034,209.923 232.701,210.423 234.5,210.5C 237.916,209.956 240.916,208.622 243.5,206.5C 243.5,206.833 243.5,207.167 243.5,207.5C 240.768,213.201 236.434,215.035 230.5,213C 226.782,208.388 222.115,205.888 216.5,205.5C 216.5,204.5 216.5,203.5 216.5,202.5 Z"/></g>
<g><path style="opacity:1" fill="#1b1b1b" d="M 94.5,204.5 C 97.9103,204.384 99.2436,206.05 98.5,209.5C 96.8333,209.5 95.1667,209.5 93.5,209.5C 93.366,207.708 93.6993,206.042 94.5,204.5 Z"/></g>
<g><path style="opacity:1" fill="#ad8149" d="M 191.5,158.5 C 194.253,157.341 196.919,157.841 199.5,160C 211.38,171.309 215.88,185.142 213,201.5C 211.11,213.99 204.444,222.656 193,227.5C 191.278,227.389 191.112,226.889 192.5,226C 198.457,224.377 202.957,220.877 206,215.5C 213.332,200.155 213.332,184.821 206,169.5C 202.735,163.731 197.902,160.065 191.5,158.5 Z"/></g>
<g><path style="opacity:1" fill="#cc7a4d" d="M 217.5,200.5 C 219.199,200.34 220.866,200.506 222.5,201C 225.5,203.333 228.5,205.667 231.5,208C 235.872,209.419 239.206,208.252 241.5,204.5C 242.5,204.833 243.167,205.5 243.5,206.5C 240.916,208.622 237.916,209.956 234.5,210.5C 232.701,210.423 231.034,209.923 229.5,209C 226.471,204.152 222.138,201.986 216.5,202.5C 216.833,201.833 217.167,201.167 217.5,200.5 Z"/></g>
<g><path style="opacity:1" fill="#3eaec3" d="M 160.5,200.5 C 160.833,201.167 161.167,201.833 161.5,202.5C 155.862,201.986 151.529,204.152 148.5,209C 146.966,209.923 145.299,210.423 143.5,210.5C 140.11,209.97 137.11,208.637 134.5,206.5C 134.833,205.5 135.5,204.833 136.5,204.5C 137.29,205.794 138.29,206.961 139.5,208C 145.536,209.318 150.202,207.318 153.5,202C 155.677,200.798 158.011,200.298 160.5,200.5 Z"/></g>
<g><path style="opacity:1" fill="#cd7b4f" d="M 216.5,205.5 C 222.115,205.888 226.782,208.388 230.5,213C 236.434,215.035 240.768,213.201 243.5,207.5C 244.338,207.842 244.672,208.508 244.5,209.5C 241.281,214.861 236.614,216.694 230.5,215C 227.537,213.039 224.871,210.706 222.5,208C 220.115,207.444 217.782,207.61 215.5,208.5C 215.263,207.209 215.596,206.209 216.5,205.5 Z"/></g>
<g><path style="opacity:1" fill="#3cabcd" d="M 161.5,206.5 C 161.833,207.167 162.167,207.833 162.5,208.5C 160.218,207.61 157.885,207.444 155.5,208C 152.076,211.624 148.076,214.124 143.5,215.5C 139.248,215.04 135.915,213.04 133.5,209.5C 133.5,209.167 133.5,208.833 133.5,208.5C 136.111,211.388 139.277,213.388 143,214.5C 144.627,214.375 146.127,213.875 147.5,213C 151.044,208.261 155.711,206.095 161.5,206.5 Z"/></g>
<g><path style="opacity:1" fill="#ebe926" d="M 162.5,208.5 C 163.167,210.167 163.833,211.833 164.5,213.5C 157.927,209.996 152.594,211.496 148.5,218C 145.167,220 141.833,220 138.5,218C 136.499,215.675 134.166,213.842 131.5,212.5C 131.932,211.29 132.599,210.29 133.5,209.5C 135.915,213.04 139.248,215.04 143.5,215.5C 148.076,214.124 152.076,211.624 155.5,208C 157.885,207.444 160.218,207.61 162.5,208.5 Z"/></g>
<g><path style="opacity:1" fill="#fae40e" d="M 244.5,209.5 C 245.401,210.29 246.068,211.29 246.5,212.5C 243.834,213.842 241.501,215.675 239.5,218C 236.167,220 232.833,220 229.5,218C 225.88,212.183 220.88,210.35 214.5,212.5C 214.433,211.041 214.766,209.708 215.5,208.5C 217.782,207.61 220.115,207.444 222.5,208C 224.871,210.706 227.537,213.039 230.5,215C 236.614,216.694 241.281,214.861 244.5,209.5 Z"/></g>
<g><path style="opacity:1" fill="#efea1f" d="M 130.5,213.5 C 134.286,216.791 138.453,219.458 143,221.5C 147.873,220.633 151.706,218.133 154.5,214C 158.655,212.946 162.322,213.78 165.5,216.5C 167.167,219.167 168.833,221.833 170.5,224.5C 166.969,221.159 162.802,218.826 158,217.5C 154.118,218.532 150.951,220.698 148.5,224C 145.634,225.457 142.634,225.79 139.5,225C 136.391,221.689 132.724,219.522 128.5,218.5C 128.893,216.716 129.559,215.05 130.5,213.5 Z"/></g>
<g><path style="opacity:1" fill="#fae60d" d="M 247.5,213.5 C 248.167,214.833 248.833,216.167 249.5,217.5C 245.458,219.362 241.792,221.862 238.5,225C 232.998,226.417 228.665,224.75 225.5,220C 223.487,218.743 221.321,217.909 219,217.5C 214.775,219.232 210.942,221.565 207.5,224.5C 209.5,221.5 211.5,218.5 213.5,215.5C 219.571,212.011 224.571,213.178 228.5,219C 232.5,222.333 236.5,222.333 240.5,219C 242.864,217.158 245.197,215.325 247.5,213.5 Z"/></g>
<g><path style="opacity:1" fill="#cc784e" d="M 246.5,212.5 C 247.167,212.5 247.5,212.833 247.5,213.5C 245.197,215.325 242.864,217.158 240.5,219C 236.5,222.333 232.5,222.333 228.5,219C 224.571,213.178 219.571,212.011 213.5,215.5C 213.263,214.209 213.596,213.209 214.5,212.5C 220.88,210.35 225.88,212.183 229.5,218C 232.833,220 236.167,220 239.5,218C 241.501,215.675 243.834,213.842 246.5,212.5 Z"/></g>
<g><path style="opacity:1" fill="#41aec2" d="M 164.5,213.5 C 165.11,214.391 165.443,215.391 165.5,216.5C 162.322,213.78 158.655,212.946 154.5,214C 151.706,218.133 147.873,220.633 143,221.5C 138.453,219.458 134.286,216.791 130.5,213.5C 130.5,212.833 130.833,212.5 131.5,212.5C 134.166,213.842 136.499,215.675 138.5,218C 141.833,220 145.167,220 148.5,218C 152.594,211.496 157.927,209.996 164.5,213.5 Z"/></g>
<g><path style="opacity:1" fill="#ece922" d="M 127.5,219.5 C 132.581,222.558 137.914,225.225 143.5,227.5C 145.299,227.423 146.966,226.923 148.5,226C 151.523,220.986 155.857,218.986 161.5,220C 164.792,223.138 168.458,225.638 172.5,227.5C 174.404,227.738 175.738,228.738 176.5,230.5C 171.937,231.905 168.271,230.405 165.5,226C 158.293,221.793 152.293,223.126 147.5,230C 146.127,230.875 144.627,231.375 143,231.5C 138.667,229.846 134.833,227.346 131.5,224C 129.527,223.505 127.527,223.338 125.5,223.5C 125.66,221.847 126.326,220.514 127.5,219.5 Z"/></g>
<g><path style="opacity:1" fill="#f9e410" d="M 250.5,219.5 C 251.674,220.514 252.34,221.847 252.5,223.5C 250.473,223.338 248.473,223.505 246.5,224C 243.167,227.346 239.333,229.846 235,231.5C 230.667,229.846 226.833,227.346 223.5,224C 220.961,223.204 218.628,223.371 216.5,224.5C 212.798,226.024 209.464,228.19 206.5,231C 204.613,231.78 202.946,231.613 201.5,230.5C 202.262,228.738 203.596,227.738 205.5,227.5C 209.542,225.638 213.208,223.138 216.5,220C 222.143,218.986 226.477,220.986 229.5,226C 231.034,226.923 232.701,227.423 234.5,227.5C 239.845,224.827 245.179,222.161 250.5,219.5 Z"/></g>
<g><path style="opacity:1" fill="#cb794e" d="M 249.5,217.5 C 250.338,217.842 250.672,218.508 250.5,219.5C 245.179,222.161 239.845,224.827 234.5,227.5C 232.701,227.423 231.034,226.923 229.5,226C 226.477,220.986 222.143,218.986 216.5,220C 213.208,223.138 209.542,225.638 205.5,227.5C 205.932,226.29 206.599,225.29 207.5,224.5C 210.942,221.565 214.775,219.232 219,217.5C 221.321,217.909 223.487,218.743 225.5,220C 228.665,224.75 232.998,226.417 238.5,225C 241.792,221.862 245.458,219.362 249.5,217.5 Z"/></g>
<g><path style="opacity:1" fill="#3aadc7" d="M 170.5,224.5 C 171.167,225.5 171.833,226.5 172.5,227.5C 168.458,225.638 164.792,223.138 161.5,220C 155.857,218.986 151.523,220.986 148.5,226C 146.966,226.923 145.299,227.423 143.5,227.5C 137.914,225.225 132.581,222.558 127.5,219.5C 127.5,218.833 127.833,218.5 128.5,218.5C 132.724,219.522 136.391,221.689 139.5,225C 142.634,225.79 145.634,225.457 148.5,224C 150.951,220.698 154.118,218.532 158,217.5C 162.802,218.826 166.969,221.159 170.5,224.5 Z"/></g>
<g><path style="opacity:1" fill="#fcee06" d="M 178.5,231.5 C 185.798,235.414 193.132,235.414 200.5,231.5C 202.628,232.629 204.961,232.796 207.5,232C 210.69,229.636 213.69,227.136 216.5,224.5C 218.527,224.338 220.527,224.505 222.5,225C 230.756,234.932 239.089,234.932 247.5,225C 250.065,224.391 252.399,224.891 254.5,226.5C 257.6,231.185 260.6,236.019 263.5,241C 213.833,241.667 164.167,241.667 114.5,241C 117.386,236.055 120.386,231.221 123.5,226.5C 125.601,224.891 127.935,224.391 130.5,225C 133.128,226.626 135.461,228.626 137.5,231C 140.702,232.483 144.036,232.817 147.5,232C 150.762,229.056 154.262,226.556 158,224.5C 162.685,226.094 166.851,228.594 170.5,232C 173.261,232.722 175.927,232.555 178.5,231.5 Z"/></g>
<g><path style="opacity:1" fill="#c9744f" d="M 216.5,224.5 C 218.628,223.371 220.961,223.204 223.5,224C 226.833,227.346 230.667,229.846 235,231.5C 239.333,229.846 243.167,227.346 246.5,224C 248.473,223.505 250.473,223.338 252.5,223.5C 253.906,223.973 254.573,224.973 254.5,226.5C 252.399,224.891 250.065,224.391 247.5,225C 239.089,234.932 230.756,234.932 222.5,225C 220.527,224.505 218.527,224.338 216.5,224.5 Z"/></g>
<g><path style="opacity:1" fill="#39aacc" d="M 125.5,223.5 C 127.527,223.338 129.527,223.505 131.5,224C 134.833,227.346 138.667,229.846 143,231.5C 144.627,231.375 146.127,230.875 147.5,230C 152.293,223.126 158.293,221.793 165.5,226C 168.271,230.405 171.937,231.905 176.5,230.5C 177.492,230.328 178.158,230.662 178.5,231.5C 175.927,232.555 173.261,232.722 170.5,232C 166.851,228.594 162.685,226.094 158,224.5C 154.262,226.556 150.762,229.056 147.5,232C 144.036,232.817 140.702,232.483 137.5,231C 135.461,228.626 133.128,226.626 130.5,225C 127.935,224.391 125.601,224.891 123.5,226.5C 123.427,224.973 124.094,223.973 125.5,223.5 Z"/></g>
<g><path style="opacity:1" fill="#c97151" d="M 216.5,224.5 C 213.69,227.136 210.69,229.636 207.5,232C 204.961,232.796 202.628,232.629 200.5,231.5C 200.5,230.833 200.833,230.5 201.5,230.5C 202.946,231.613 204.613,231.78 206.5,231C 209.464,228.19 212.798,226.024 216.5,224.5 Z"/></g>
<g><path style="opacity:1" fill="#f9f9f9" d="M 108.5,237.5 C 109.167,237.833 109.833,238.167 110.5,238.5C 109.529,240.483 108.529,242.483 107.5,244.5C 106.957,244.56 106.624,244.893 106.5,245.5C 161.5,246.833 216.5,246.833 271.5,245.5C 271.376,244.893 271.043,244.56 270.5,244.5C 269.471,242.483 268.471,240.483 267.5,238.5C 268.167,238.167 268.833,237.833 269.5,237.5C 270.913,240.661 272.58,243.661 274.5,246.5C 217.5,247.833 160.5,247.833 103.5,246.5C 105.42,243.661 107.087,240.661 108.5,237.5 Z"/></g>
<g><path style="opacity:1" fill="#cbcbcb" d="M 107.5,244.5 C 161.833,245.833 216.167,245.833 270.5,244.5C 271.043,244.56 271.376,244.893 271.5,245.5C 216.5,246.833 161.5,246.833 106.5,245.5C 106.624,244.893 106.957,244.56 107.5,244.5 Z"/></g>
<g><path style="opacity:1" fill="#868686" d="M 103.5,246.5 C 160.5,247.833 217.5,247.833 274.5,246.5C 275.043,246.56 275.376,246.893 275.5,247.5C 217.833,248.833 160.167,248.833 102.5,247.5C 102.624,246.893 102.957,246.56 103.5,246.5 Z"/></g>
<g><path style="opacity:1" fill="#e7e7e7" d="M 148.5,252.5 C 152.585,251.659 155.585,252.992 157.5,256.5C 157,256.833 156.5,257.167 156,257.5C 154.026,255.628 151.859,255.295 149.5,256.5C 151.35,258.572 153.683,259.905 156.5,260.5C 159.283,263.342 158.95,265.842 155.5,268C 151.118,269.419 147.784,268.252 145.5,264.5C 147.562,263.239 149.228,263.739 150.5,266C 153.49,266.847 154.824,265.68 154.5,262.5C 146.861,262.236 144.861,258.902 148.5,252.5 Z"/></g>
<g><path style="opacity:1" fill="#e4e4e4" d="M 165.5,252.5 C 166.822,252.33 167.989,252.663 169,253.5C 170.735,258.206 172.569,262.873 174.5,267.5C 174,267.833 173.5,268.167 173,268.5C 171.454,266.759 169.454,265.759 167,265.5C 164.313,265.198 162.313,266.198 161,268.5C 160.5,268.167 160,267.833 159.5,267.5C 161.239,262.362 163.239,257.362 165.5,252.5 Z"/></g>
<g><path style="opacity:1" fill="#eeeeee" d="M 173.5,253.5 C 174.978,253.238 176.311,253.571 177.5,254.5C 178.083,256.002 178.916,257.335 180,258.5C 181.046,256.91 182.213,255.41 183.5,254C 184.635,253.251 185.635,253.417 186.5,254.5C 182.576,258.35 180.909,263.017 181.5,268.5C 180.5,268.5 179.5,268.5 178.5,268.5C 178.663,266.143 178.497,263.81 178,261.5C 176.223,258.941 174.723,256.274 173.5,253.5 Z"/></g>
<g><path style="opacity:1" fill="#e3e3e3" d="M 191.5,252.5 C 192.822,252.33 193.989,252.663 195,253.5C 196.735,258.206 198.569,262.873 200.5,267.5C 200,267.833 199.5,268.167 199,268.5C 197.454,266.759 195.454,265.759 193,265.5C 190.546,265.759 188.546,266.759 187,268.5C 186.5,268.167 186,267.833 185.5,267.5C 187.508,262.471 189.508,257.471 191.5,252.5 Z"/></g>
<g><path style="opacity:1" fill="#e7e7e7" d="M 206.5,252.5 C 211.001,251.621 214.334,253.121 216.5,257C 213.924,257.606 211.59,257.106 209.5,255.5C 207.971,255.529 206.804,256.196 206,257.5C 203.827,264.494 206.327,267.161 213.5,265.5C 213.5,264.5 213.5,263.5 213.5,262.5C 212.022,262.762 210.689,262.429 209.5,261.5C 211.743,260.526 214.076,260.192 216.5,260.5C 216.756,262.792 216.423,264.959 215.5,267C 205.251,270.751 201.084,267.251 203,256.5C 204.102,255.051 205.269,253.718 206.5,252.5 Z"/></g>
<g><path style="opacity:1" fill="#e5e5e5" d="M 223.5,253.5 C 225.144,253.286 226.644,253.62 228,254.5C 229.642,259.097 231.476,263.597 233.5,268C 229.995,266.03 225.995,265.197 221.5,265.5C 221.5,266.5 221.5,267.5 221.5,268.5C 220.127,268.657 218.793,268.49 217.5,268C 219.601,263.195 221.601,258.362 223.5,253.5 Z"/></g>
<g><path style="opacity:1" fill="#151515" d="M 192.5,257.5 C 193.931,258.78 194.598,260.447 194.5,262.5C 193.5,262.5 192.5,262.5 191.5,262.5C 191.629,260.784 191.962,259.117 192.5,257.5 Z"/></g>
<g><path style="opacity:1" fill="#202020" d="M 166.5,257.5 C 167.931,258.78 168.598,260.447 168.5,262.5C 164.247,262.88 163.58,261.213 166.5,257.5 Z"/></g>
<g><path style="opacity:1" fill="#1d1d1d" d="M 224.5,258.5 C 226.121,258.787 227.121,259.787 227.5,261.5C 226.167,262.833 224.833,262.833 223.5,261.5C 224.127,260.583 224.461,259.583 224.5,258.5 Z"/></g>
<g><path style="opacity:1" fill="#eee00d" d="M 257.5,275.5 C 227.109,301.173 192.776,308.006 154.5,296C 141.64,291.416 130.307,284.583 120.5,275.5C 123.831,272 126.998,268.334 130,264.5C 142.148,275.491 156.314,282.658 172.5,286C 201.14,290.654 226.307,283.487 248,264.5C 251.002,268.334 254.169,272 257.5,275.5 Z"/></g>
<g><path style="opacity:1" fill="#f2f9ee" d="M 111.5,267.5 C 114.5,270.167 117.5,272.833 120.5,275.5C 130.307,284.583 141.64,291.416 154.5,296C 192.776,308.006 227.109,301.173 257.5,275.5C 260.167,273.167 262.833,270.833 265.5,268.5C 265.5,269.167 265.5,269.833 265.5,270.5C 244.515,292.983 218.515,303.983 187.5,303.5C 157.202,303.013 131.869,291.68 111.5,269.5C 111.5,268.833 111.5,268.167 111.5,267.5 Z"/></g>
<g><path style="opacity:1" fill="#433c1d" d="M 225.5,282.5 C 227.858,284.168 229.524,286.501 230.5,289.5C 228.525,290.578 226.692,290.245 225,288.5C 225.263,289.951 225.096,291.284 224.5,292.5C 222.805,290.465 221.472,288.132 220.5,285.5C 222.365,284.334 224.032,284.667 225.5,286.5C 226.292,285.3 226.292,283.967 225.5,282.5 Z"/></g>
<g><path style="opacity:1" fill="#3f391d" d="M 150.5,282.5 C 151.5,282.5 152.5,282.5 153.5,282.5C 153.82,285.898 153.487,289.232 152.5,292.5C 151.833,291.5 151.167,290.5 150.5,289.5C 148.765,288.943 147.098,288.61 145.5,288.5C 147.19,286.481 148.856,284.481 150.5,282.5 Z"/></g>
<g><path style="opacity:1" fill="#37311e" d="M 232.5,278.5 C 237.778,279.605 237.612,280.605 232,281.5C 231.184,284.738 232.35,286.238 235.5,286C 236.833,284.16 236.666,283.66 235,284.5C 234.667,281.833 235.667,281.167 238,282.5C 238.165,286.977 235.998,288.477 231.5,287C 228.665,283.695 228.999,280.862 232.5,278.5 Z"/></g>
<g><path style="opacity:1" fill="#39331e" d="M 142.5,278.5 C 141.128,280.868 139.128,282.535 136.5,283.5C 134.603,283.272 133.27,282.272 132.5,280.5C 133.351,278.118 134.684,276.118 136.5,274.5C 137.108,276.684 136.441,278.684 134.5,280.5C 135.035,282.101 136.035,282.601 137.5,282C 138.5,280.333 139.5,278.667 140.5,277C 141.816,276.472 142.483,276.972 142.5,278.5 Z"/></g>
<g><path style="opacity:1" fill="#3e381d" d="M 142.5,278.5 C 145.179,278.673 147.513,279.673 149.5,281.5C 148.726,282.711 147.893,282.711 147,281.5C 145.732,283.717 144.232,285.717 142.5,287.5C 142.015,285.223 142.681,283.056 144.5,281C 143.619,280.292 142.953,279.458 142.5,278.5 Z"/></g>
<g><path style="opacity:1" fill="#3d371d" d="M 238.5,274.5 C 242.971,274.672 243.304,275.506 239.5,277C 241.167,277.333 242.833,277.667 244.5,278C 246.006,280.825 245.173,282.658 242,283.5C 240.941,283.37 240.108,282.87 239.5,282C 240.938,281.781 242.271,281.281 243.5,280.5C 241.604,279.534 239.604,279.201 237.5,279.5C 237.366,277.708 237.699,276.042 238.5,274.5 Z"/></g>
<g><path style="opacity:1" fill="#433c1e" d="M 129.5,268.5 C 132.07,269.484 132.07,270.651 129.5,272C 130.672,272.353 131.838,272.187 133,271.5C 136.088,273.115 135.588,273.782 131.5,273.5C 131.808,275.924 131.474,278.257 130.5,280.5C 128.343,279.034 128.01,277.2 129.5,275C 127.953,274.667 126.62,275.167 125.5,276.5C 125.167,276.167 124.833,275.833 124.5,275.5C 126.422,273.313 128.088,270.98 129.5,268.5 Z"/></g>
<g><path style="opacity:1" fill="#413a1e" d="M 245.5,270.5 C 249.024,270.929 252.024,272.429 254.5,275C 250.878,274.621 248.711,276.121 248,279.5C 246.092,276.794 245.259,273.794 245.5,270.5 Z"/></g>
<g><path style="opacity:1" fill="#39331e" d="M 214.5,286.5 C 215.552,286.351 216.552,286.517 217.5,287C 218.928,289.185 220.595,291.185 222.5,293C 220.965,293.496 219.465,293.33 218,292.5C 216.347,292.82 215.347,293.82 215,295.5C 214.502,292.518 214.335,289.518 214.5,286.5 Z"/></g>
<g><path style="opacity:1" fill="#423c1d" d="M 159.5,285.5 C 160.497,285.47 161.164,285.97 161.5,287C 160.355,289.199 160.355,291.365 161.5,293.5C 163.01,291.678 164.343,289.678 165.5,287.5C 166.408,290.298 165.741,292.798 163.5,295C 161.888,295.72 160.388,295.554 159,294.5C 158.366,291.445 158.532,288.445 159.5,285.5 Z"/></g>
<g><path style="opacity:1" fill="#3c361e" d="M 178.5,289.5 C 179.5,289.5 180.5,289.5 181.5,289.5C 181.852,292.428 182.518,295.262 183.5,298C 183.167,298.167 182.833,298.333 182.5,298.5C 180.326,295.919 178.16,295.919 176,298.5C 176.206,295.394 177.039,292.394 178.5,289.5 Z"/></g>
<g><path style="opacity:1" fill="#312b1f" d="M 183.5,291.5 C 185.782,292.737 188.115,292.737 190.5,291.5C 188.297,293.295 187.131,295.629 187,298.5C 186.856,295.558 185.689,293.224 183.5,291.5 Z"/></g>
<g><path style="opacity:1" fill="#3e371d" d="M 210.5,287.5 C 212.388,289.988 213.055,292.988 212.5,296.5C 209.95,296.439 208.45,295.106 208,292.5C 207.506,294.134 207.34,295.801 207.5,297.5C 206.178,297.67 205.011,297.337 204,296.5C 203.443,294.385 202.609,292.385 201.5,290.5C 201.833,290.167 202.167,289.833 202.5,289.5C 203.584,290.665 204.417,291.998 205,293.5C 205.494,291.866 205.66,290.199 205.5,288.5C 208.05,288.561 209.55,289.894 210,292.5C 210.494,290.866 210.66,289.199 210.5,287.5 Z"/></g>
<g><path style="opacity:1" fill="#3f391d" d="M 167.5,287.5 C 174.633,287.816 176.3,290.983 172.5,297C 170.559,297.743 168.726,297.576 167,296.5C 166.699,293.493 166.865,290.493 167.5,287.5 Z"/></g>
<g><path style="opacity:1" fill="#e4d705" d="M 169.5,289.5 C 172.513,290.356 173.18,292.189 171.5,295C 170.552,295.483 169.552,295.649 168.5,295.5C 168.517,293.435 168.85,291.435 169.5,289.5 Z"/></g>
<g><path style="opacity:1" fill="#40391f" d="M 193.5,289.5 C 195.992,291.28 197.659,293.78 198.5,297C 198.167,297.5 197.833,298 197.5,298.5C 196.158,296.995 194.492,296.328 192.5,296.5C 192.719,297.675 192.386,298.675 191.5,299.5C 190.669,295.96 191.336,292.626 193.5,289.5 Z"/></g>
<g><path style="opacity:1" fill="#0f0d01" d="M 77.5,360.5 C 82.8206,361.659 87.8206,363.659 92.5,366.5C 92.1667,367.5 91.5,368.167 90.5,368.5C 88.8306,367.11 87.1639,366.777 85.5,367.5C 83.6612,372.511 81.3278,377.178 78.5,381.5C 77.2801,381.113 76.6135,380.28 76.5,379C 78.4029,374.458 80.4029,369.958 82.5,365.5C 81.1502,364.05 79.4835,363.383 77.5,363.5C 77.5,362.5 77.5,361.5 77.5,360.5 Z"/></g>
<g><path style="opacity:1" fill="#100e01" d="M 296.5,360.5 C 297.376,360.369 298.043,360.702 298.5,361.5C 300.833,366.833 303.167,372.167 305.5,377.5C 304.307,379.384 302.641,379.884 300.5,379C 297.5,376.833 294.5,374.667 291.5,372.5C 291.604,375.84 292.604,379.173 294.5,382.5C 294.167,383.5 293.5,384.167 292.5,384.5C 289.134,378.936 286.134,373.103 283.5,367C 284.93,365.56 286.597,365.226 288.5,366C 292.088,368.377 295.588,370.877 299,373.5C 298.269,369.974 297.103,366.474 295.5,363C 295.743,362.098 296.077,361.265 296.5,360.5 Z"/></g>
<g><path style="opacity:1" fill="#131002" d="M 94.5,366.5 C 99.2952,368.042 103.962,369.875 108.5,372C 107.737,372.944 106.737,373.444 105.5,373.5C 102.58,372.414 99.5804,371.748 96.5,371.5C 96.2865,373.144 96.6198,374.644 97.5,376C 100.244,376.803 102.911,377.803 105.5,379C 104.953,379.925 104.287,380.758 103.5,381.5C 100.96,380.598 98.4602,379.598 96,378.5C 93.9655,379.944 93.1322,381.944 93.5,384.5C 96.7893,385.374 100.123,386.041 103.5,386.5C 103.5,387.5 103.5,388.5 103.5,389.5C 97.9514,389.206 92.9514,387.539 88.5,384.5C 90.7054,378.55 92.7054,372.55 94.5,366.5 Z"/></g>
<g><path style="opacity:1" fill="#141103" d="M 272.5,369.5 C 273.675,369.281 274.675,369.614 275.5,370.5C 279.5,375.5 283.5,380.5 287.5,385.5C 286.672,386.415 285.672,387.081 284.5,387.5C 282.027,382.903 278.694,382.237 274.5,385.5C 273.702,387.078 273.202,388.744 273,390.5C 271.989,391.337 270.822,391.67 269.5,391.5C 269.334,385.824 269.501,380.157 270,374.5C 270.335,372.497 271.168,370.83 272.5,369.5 Z"/></g>
<g><path style="opacity:1" fill="#161303" d="M 114.5,373.5 C 121.373,372.422 125.707,375.088 127.5,381.5C 124.755,381.627 122.755,380.46 121.5,378C 114.24,376.967 111.407,380.133 113,387.5C 113.758,389.91 115.425,390.91 118,390.5C 119.973,390.691 121.473,390.024 122.5,388.5C 121.311,387.571 119.978,387.238 118.5,387.5C 118.5,386.167 118.5,384.833 118.5,383.5C 126.987,383.886 128.654,387.386 123.5,394C 112.492,395.935 107.658,391.435 109,380.5C 110.371,377.734 112.204,375.401 114.5,373.5 Z"/></g>
<g><path style="opacity:1" fill="#120f02" d="M 260.5,382.5 C 260.539,381.244 260.039,380.244 259,379.5C 258.501,384.489 258.334,389.489 258.5,394.5C 256.856,394.714 255.356,394.38 254,393.5C 252.333,390.167 250.667,386.833 249,383.5C 249.639,387.756 250.139,392.089 250.5,396.5C 249.5,396.5 248.5,396.5 247.5,396.5C 246.167,390.167 244.833,383.833 243.5,377.5C 245.599,376.769 247.599,376.769 249.5,377.5C 255.043,390.759 257.043,389.759 255.5,374.5C 257.591,374.682 259.591,374.348 261.5,373.5C 263.045,378.766 264.379,384.1 265.5,389.5C 265.658,391.319 264.991,392.652 263.5,393.5C 262.031,389.957 261.031,386.291 260.5,382.5 Z"/></g>
<g><path style="opacity:1" fill="#0e0c01" d="M 137.5,378.5 C 139.167,378.5 140.833,378.5 142.5,378.5C 143.064,384.985 144.397,391.319 146.5,397.5C 146.167,398.167 145.833,398.833 145.5,399.5C 143.312,398.556 141.979,396.889 141.5,394.5C 140,394.167 138.5,393.833 137,393.5C 134.063,393.691 131.563,394.691 129.5,396.5C 128.833,396.167 128.167,395.833 127.5,395.5C 131.097,389.97 134.43,384.304 137.5,378.5 Z"/></g>
<g><path style="opacity:1" fill="#151204" d="M 236.5,378.5 C 237.833,378.5 239.167,378.5 240.5,378.5C 241.494,384.796 242.16,391.13 242.5,397.5C 240.876,397.64 239.71,396.973 239,395.5C 237.948,389.856 237.115,384.189 236.5,378.5 Z"/></g>
<g><path style="opacity:1" fill="#c4b900" d="M 273.5,374.5 C 275.148,376.429 276.815,378.429 278.5,380.5C 277.264,381.357 275.931,382.023 274.5,382.5C 273.52,379.914 273.187,377.247 273.5,374.5 Z"/></g>
<g><path style="opacity:1" fill="#121002" d="M 154.5,393.5 C 153.539,395.265 153.205,397.265 153.5,399.5C 152.5,399.5 151.5,399.5 150.5,399.5C 150.5,397.833 150.5,396.167 150.5,394.5C 150.669,389.819 151.002,385.152 151.5,380.5C 155.182,380.335 158.848,380.501 162.5,381C 169.034,384.905 169.034,388.905 162.5,393C 164.417,395.498 166.084,398.165 167.5,401C 165.741,401.798 164.074,401.631 162.5,400.5C 161.42,398.004 160.086,395.67 158.5,393.5C 157.042,392.218 155.708,392.218 154.5,393.5 Z"/></g>
<g><path style="opacity:1" fill="#141103" d="M 225.5,392.5 C 224.432,391.566 223.099,391.232 221.5,391.5C 221.205,393.735 221.539,395.735 222.5,397.5C 222.5,398.5 222.5,399.5 222.5,400.5C 221.167,400.5 219.833,400.5 218.5,400.5C 217.669,393.851 217.002,387.185 216.5,380.5C 221.762,380.195 226.928,380.529 232,381.5C 234.385,385.457 233.552,388.624 229.5,391C 231.874,393.039 233.874,395.372 235.5,398C 234.234,398.309 233.067,398.809 232,399.5C 229.6,397.271 227.433,394.937 225.5,392.5 Z"/></g>
<g><path style="opacity:1" fill="#121002" d="M 206.5,392.5 C 205.167,392.5 203.833,392.5 202.5,392.5C 202.205,394.735 202.539,396.735 203.5,398.5C 207.167,398.5 210.833,398.5 214.5,398.5C 214.5,399.5 214.5,400.5 214.5,401.5C 209.5,401.5 204.5,401.5 199.5,401.5C 198.788,394.857 198.454,388.191 198.5,381.5C 203.5,381.5 208.5,381.5 213.5,381.5C 213.5,382.5 213.5,383.5 213.5,384.5C 209.833,384.5 206.167,384.5 202.5,384.5C 202.5,386.167 202.5,387.833 202.5,389.5C 205.833,389.5 209.167,389.5 212.5,389.5C 212.5,390.5 212.5,391.5 212.5,392.5C 210.5,392.5 208.5,392.5 206.5,392.5 Z"/></g>
<g><path style="opacity:1" fill="#121002" d="M 178.5,382.5 C 182.846,382.334 187.179,382.501 191.5,383C 195.002,385.496 195.335,388.329 192.5,391.5C 196.667,395.355 196.334,398.855 191.5,402C 187.179,402.499 182.846,402.666 178.5,402.5C 178.5,395.833 178.5,389.167 178.5,382.5 Z"/></g>
<g><path style="opacity:1" fill="#dccf00" d="M 220.5,383.5 C 223.187,383.336 225.854,383.503 228.5,384C 229.833,385.333 229.833,386.667 228.5,388C 225.854,388.497 223.187,388.664 220.5,388.5C 220.5,386.833 220.5,385.167 220.5,383.5 Z"/></g>
<g><path style="opacity:1" fill="#dacd00" d="M 138.5,383.5 C 140.163,385.438 140.829,387.772 140.5,390.5C 138.712,390.785 137.045,390.452 135.5,389.5C 136.513,387.473 137.513,385.473 138.5,383.5 Z"/></g>
<g><path style="opacity:1" fill="#e8da00" d="M 160.5,384.5 C 163.076,384.722 163.91,386.055 163,388.5C 160.959,389.423 158.792,389.756 156.5,389.5C 155.699,387.958 155.366,386.292 155.5,384.5C 157.167,384.5 158.833,384.5 160.5,384.5 Z"/></g>
<g><path style="opacity:1" fill="#e3d500" d="M 182.5,385.5 C 184.857,385.337 187.19,385.503 189.5,386C 190.833,387.333 190.833,388.667 189.5,390C 187.19,390.497 184.857,390.663 182.5,390.5C 182.5,388.833 182.5,387.167 182.5,385.5 Z"/></g>
<g><path style="opacity:1" fill="#8c8300" d="M 260.5,382.5 C 259.833,386.5 259.167,390.5 258.5,394.5C 258.334,389.489 258.501,384.489 259,379.5C 260.039,380.244 260.539,381.244 260.5,382.5 Z"/></g>
<g><path style="opacity:1" fill="#645e01" d="M 160.5,384.5 C 158.833,384.5 157.167,384.5 155.5,384.5C 155.366,386.292 155.699,387.958 156.5,389.5C 154.692,388.082 154.025,386.082 154.5,383.5C 156.735,383.205 158.735,383.539 160.5,384.5 Z"/></g>
<g><path style="opacity:1" fill="#635d01" d="M 225.5,392.5 C 224.5,392.5 223.5,392.5 222.5,392.5C 222.5,394.167 222.5,395.833 222.5,397.5C 221.539,395.735 221.205,393.735 221.5,391.5C 223.099,391.232 224.432,391.566 225.5,392.5 Z"/></g>
<g><path style="opacity:1" fill="#efe100" d="M 182.5,393.5 C 184.857,393.337 187.19,393.503 189.5,394C 191.592,394.953 191.925,396.286 190.5,398C 187.854,398.497 185.187,398.664 182.5,398.5C 182.5,396.833 182.5,395.167 182.5,393.5 Z"/></g>
<g><path style="opacity:1" fill="#756e00" d="M 206.5,392.5 C 205.791,393.404 204.791,393.737 203.5,393.5C 203.5,395.167 203.5,396.833 203.5,398.5C 202.539,396.735 202.205,394.735 202.5,392.5C 203.833,392.5 205.167,392.5 206.5,392.5 Z"/></g>
<g><path style="opacity:1" fill="#6d6701" d="M 154.5,393.5 C 154.5,395.833 154.5,398.167 154.5,400.5C 152.833,400.5 151.167,400.5 149.5,400.5C 149.205,398.265 149.539,396.265 150.5,394.5C 150.5,396.167 150.5,397.833 150.5,399.5C 151.5,399.5 152.5,399.5 153.5,399.5C 153.205,397.265 153.539,395.265 154.5,393.5 Z"/></g>
</svg>
